<?xml version="1.0" standalone="no"?><svg xmlns="http://www.w3.org/2000/svg" viewBox="0 0 1440 320"><path fill="#273036" fill-opacity="1" d="M0,288L34.3,282.7C68.6,277,137,267,206,245.3C274.3,224,343,192,411,181.3C480,171,549,181,617,170.7C685.7,160,754,128,823,117.3C891.4,107,960,117,1029,149.3C1097.1,181,1166,235,1234,224C1302.9,213,1371,139,1406,101.3L1440,64L1440,0L1405.7,0C1371.4,0,1303,0,1234,0C1165.7,0,1097,0,1029,0C960,0,891,0,823,0C754.3,0,686,0,617,0C548.6,0,480,0,411,0C342.9,0,274,0,206,0C137.1,0,69,0,34,0L0,0Z"></path></svg>